<?xml version="1.0" encoding="UTF-8"?><svg id="Layer_1" xmlns="http://www.w3.org/2000/svg" viewBox="0 0 450.36 473.59"><path d="M450.17,20.75c-.33,2.37-1.44,5.07-2.99,6.96l-55.92,58.8c-2.79,2.35-5.35,5.82-8.05,8.47-63.98,62.75-125.6,132.49-187.74,197.57-1.2,1.25-2.38,2.51-3.58,3.76-14.73,15.42-29.44,32.35-44.7,47.04-1.81,1.75-3.22,3.98-5.38,5.35l-37.01-11.61,1.79-1.88C210.75,225.61,314.96,116.01,419.05,6.32c4.71-5.03,10.47-5.75,16.82-6.32.36.22.58.66.94.89,2.79,1.82,5.21,1.25,8.39,4.76,2.87,3.17,5.54,10.93,4.97,15.1Z" fill="#e62244"/><path d="M152.67,350.79c-3.4,2.86-28.67,28.03-28.62,30.11.02,1.06,8.14,6.13,7.04,7.71-1.74,1.25-7.75,8.85-8.44,8.86-.56,0-6.79-7.94-8.87-5.75l-12.96,13.64c-9.48-11.48-24.19-20.55-33.49-31.73-.84-1.01-2.84-3.51-1.86-4.54l12.96-13.64c-1.07-1.44-6.58-5.64-6.6-6.26-.02-.65,8.3-9.4,8.95-9.42.75-.02,5.84,6.3,6.59,6.28s8.16-8.96,10.3-10.76c1.62-1.36,4.03-.95,4.99-1.57,11.16,6.18,23.98,7.89,36.08,11.01,3.35.87,6.64,2.69,10.16,2.49.98,1.28,2.68,2.3,3.76,3.58Z" fill="#ccc"/><path d="M13.55,438.8l-7.53-7.15,54.53-57.39c.38-.4,9.39,5.2,7.08,7.62l-54.09,56.92Z" fill="#ccc"/><path d="M78.1,414.2c1.81-1.86,10.78-12.24,11.62-12.24.52,0,6,5.83,8.41,6.22-1.42,1.61-3.04,3.09-4.46,4.71s-3,3.12-4.47,4.7c-15.01,16.17-31.01,31.57-45.09,48.55-2.83.5-6.65-5.07-8.93-6.78,11.05-11.55,22.03-23.26,33.09-34.81,3.28-3.43,6.52-6.95,9.83-10.35Z" fill="#ccc"/><path d="M66.38,422.76c-10.97,11.63-22.1,23.19-33.08,34.82l-7.53-7.16,53.19-55.98c.19-.2-.39-2.4.39-2.3l8.49,8.04c-3.54,3.78-7.22,7.49-10.74,11.29-3.52,3.8-7.18,7.52-10.73,11.29Z" fill="#ccc"/><path d="M78.43,391.24l-53.19,55.98c-1.73,1.82-7.43-4.21-8.87-5.74l54.53-57.39,7.53,7.15Z" fill="#ccc"/><path d="M40.03,469.33c-2.9,3.66-7.09,5.66-11.4,3.11-4.88-2.89-21.29-18.88-25.5-23.74-4.18-4.83-3.95-9.49.21-14.23l36.69,34.87Z" fill="#ccc"/><path d="M0,15.64c2.42,4.34,1.43,9.93,5.53,13.45l302.99,318.88c1.18.71,12.93-4.98,14.56-5.08.83-.05,1.63,1.45,1.77,1.42,2.86-.73,17.23-6.02,19.02-7.32,2.81-2.04-1-3.24-2.18-5.1-2.49.51-4.33-2.68-5.86-4.25C232.9,221.98,133.54,112.75,30.98,6.73L21.5.58C8.96-.31,4.47,4.58,0,15.64Z" fill="#73d0ee"/><path d="M364.32,344.41c-.65.26-1.16,2.19-2.48,1.24l-11.93-12.33-53.67,16.69,29.5,31.05c-1.07,1.44-6.58,5.64-6.6,6.26-.02.65,8.3,9.4,8.95,9.42s5.91-6.08,7.53-7.16l13.41,14.11c9.91-8.98,19.18-18.82,29.17-27.71,1.87-1.66,4.89-5.38,6.59-6.26-1.67-2.49-13.44-13.14-13.42-14.11.02-.77,7.53-6.38,7.55-7.15.02-.9-6.31-5.7-7.16-7.53-2.54,1.16-4.8,2.46-7.43,3.48Z" fill="#ccc"/><path d="M352.57,409.29l54.53,57.39,7.53-7.15-54.09-56.92c-2.1-2.21-7.12,4.47-7.97,6.68Z" fill="#ccc"/><path d="M379.85,383.36l-8.46,8.06c-.15.78,2.08.31,2.27.51l53.19,55.98,7.53-7.15-54.53-57.39Z" fill="#ccc"/><path d="M362.92,399.45l54.53,57.39c1.6-1.36,7.91-6.75,6.19-8.56l-53.19-55.98-7.53,7.15Z" fill="#ccc"/><path d="M384.56,378.89c-.91.92-1.93,1.75-2.83,2.68,18.52,17.11,34.95,39.96,53.65,56.45l2.78-.85c1.74-1.9,3.88-3.5,5.66-5.36-17.67-17.75-34.07-36.95-51.86-54.57-.92-.91-1.75-1.93-2.68-2.83-1.54,1.5-3.19,2.94-4.71,4.48Z" fill="#ccc"/><path d="M409.79,469.5c4.52,4.39,9.17,4.87,14.21.93,5.07-3.96,21.88-19.53,25.01-24.26,2.77-4.17.98-8.46-2.53-11.54l-36.69,34.87Z" fill="#ccc"/></svg>